<svg width="110" height="110" xmlns="http://www.w3.org/2000/svg">

 <g>
  <title>background</title>
  <rect fill="none" id="canvas_background" height="402" width="582" y="-1" x="-1"/>
 </g>
 <g>
  <title>Layer 1</title>
  <circle id="svg_1" fill="#f27825" r="55" cy="55" cx="55"/>
  <path id="svg_5" fill="#F0F1F1" d="m23.138,83.046997c0.206999,-0.461998 12.791,-28.592999 15.514,-34.679996c-0.702,3.651001 3.524998,10.256001 8.125,14.856998c5.591,5.591003 11.866001,8.870003 15.116001,8.034004c-5.634003,2.521996 -34.503002,15.410995 -34.939001,15.604996c-0.798,0.367004 -2.002001,-0.016998 -2.896,-0.919998c-0.903,-0.893997 -1.287001,-2.098 -0.92,-2.896004z"/>
  <path id="svg_7" fill="#FFFFFF" d="m23.138,83.046997c0.206999,-0.461998 12.791,-28.592999 15.514,-34.679996c-0.701,3.647999 3.516998,10.243999 8.112,14.843998l-22.719,22.717003c-0.893,-0.890999 -1.271999,-2.086998 -0.907,-2.881004z"/>
  <circle id="svg_10" fill="#DF2C2C" r="2" cy="37" cx="46"/>
  <circle id="svg_13" fill="#F37A10" r="2" cy="41" cx="62"/>
  <circle id="svg_16" fill="#059BBF" r="2" cy="49" cx="81"/>
  <circle id="svg_19" fill="#56f75e" r="2" cy="71" cx="82"/>
  <circle id="svg_22" fill="#12B2A0" r="2" cy="27" cx="59"/>
  <polygon id="svg_25" fill="#ffff00" points="72.877,26.652 68.925,28.666 65.788,25.529 66.482,29.911 62.529,31.925 66.911,32.619       67.605,37 69.619,33.047 74,33.741 70.863,30.605     "/>
  <polygon id="svg_28" fill="#F37A10" points="72.035,60 71.082,62.932 68,62.932 70.494,64.588 69.541,67.442 72.035,65.591       74.529,67.383 73.576,64.598 76.07,62.932 72.988,62.932     "/>
  <path id="svg_31" fill="#DF2C2C" d="m65,50c9.960999,0 12.055,-6.333 13.737,-11.421001c1.401001,-4.233997 2.507004,-7.578999 7.263,-7.578999c0.552002,0 1,-0.448 1,-1s-0.447998,-1 -1,-1c-6.200996,0 -7.706001,4.550999 -9.161003,8.951c-1.709,5.167999 -3.322998,10.049 -11.838997,10.049c-0.552002,0 -1,0.448002 -1,1s0.447998,1 1,1z"/>
  <path id="svg_34" fill="#059BBF" d="m51.625,43.780998c7.007999,-5.606998 4.519001,-9.359997 2.112,-12.990997c-1.346001,-2.029001 -2.737,-4.127001 -2.737,-6.790001c0,-0.552 -0.448002,-1 -1,-1s-1,0.448 -1,1c0,3.266001 1.631001,5.725 3.07,7.896c2.34,3.528 3.886002,5.860001 -1.695,10.324001c-0.431,0.344997 -0.500999,0.973999 -0.155998,1.405998c0.348,0.432999 0.976997,0.498001 1.405998,0.154999z"/>
  <path id="svg_37" fill="#12B2A0" d="m86,62c0.552002,0 1,-0.448002 1,-1s-0.447998,-1 -1,-1c-2.858002,0 -5.139,-1.521 -7.345001,-2.992001c-3.561996,-2.375 -7.246002,-4.832001 -12.362,0.285c-0.390999,0.389999 -0.390999,1.024002 0,1.414001c0.389999,0.390999 1.024002,0.390999 1.414001,0c3.957001,-3.956001 6.295998,-2.396 9.837997,-0.035c2.340004,1.559998 4.991005,3.327999 8.455002,3.327999z"/>
  <path id="svg_40" fill="#DF2C2C" d="m39.221001,81.351997c-9.117001,4.109001 1.860001,-0.815994 -7.266001,3.274002c-2.222,-2.305 -4.326,-4.776001 -6.222,-7.379997c1.062,-2.374001 2.356001,-5.268005 3.716,-8.306999c2.625002,4.630997 5.962999,8.843994 9.772001,12.412994z"/>
  <path id="svg_42" fill="#FA5655" d="m34.132999,75.839996l-5.316,5.317001c-1.074999,-1.265999 -2.108,-2.57 -3.084,-3.911995c1.062,-2.374001 2.356001,-5.268005 3.716,-8.306999c1.376001,2.427994 2.952002,4.737 4.684,6.901993z"/>
  <path id="svg_44" fill="#E2E4E5" d="m46.777,63.223c6.48,6.479004 13.889,9.868004 16.428001,7.324997c2.518997,-2.518997 -0.767002,-9.870998 -7.327003,-16.439995c-6.569,-6.560001 -13.918999,-9.835003 -16.438999,-7.327003c-2.932999,2.93 1.959,11.063004 7.338001,16.442001z"/>
  <path id="svg_45" fill="#DF2C2C" d="m45.321999,66.557999c-3.573997,-4.836998 -5.737,-9.945999 -6.194,-14.509998c-0.487,-1.389999 -0.674,-2.649002 -0.476997,-3.679001l-5.611,12.563c1.405998,3.037003 3.226997,6.089005 5.41,9.044998c2.271999,3.074005 4.829998,5.892006 7.555,8.375l7.601997,-3.395996c-3.014,-2.250999 -5.870998,-5.117004 -8.285,-8.398003z"/>
  <path id="svg_47" fill="#F0F1F1" d="m55.870998,54.102001l-9.106998,9.106998c-5.374001,-5.378998 -10.255001,-13.500999 -7.326,-16.428001c2.52,-2.505997 9.866001,0.766003 16.432999,7.321003z"/>
  <path id="svg_48" fill="#FA5655" d="m38.651001,48.368999l-5.611,12.563c1.405998,3.037003 3.226997,6.089005 5.41,9.044998c0.218998,0.296005 0.452999,0.578003 0.676998,0.870003l5.413002,-5.413002c-3.102001,-4.502998 -4.993999,-9.179996 -5.416,-13.394997c-0.484001,-1.387001 -0.670002,-2.643002 -0.473,-3.670002z"/>
 </g>
</svg>